<svg id="amazon-prime-video-seeklogo.com" xmlns="http://www.w3.org/2000/svg" width="86.605" height="26.648" viewBox="0 0 86.605 26.648">
  <g id="Grupo_7" data-name="Grupo 7" transform="translate(46.352 0)">
    <path id="Caminho_4" data-name="Caminho 4" d="M299.051,160.359c.065-.216.13-.422.195-.638.5-1.677,1-3.344,1.493-5.021l.065-.195a.442.442,0,0,1,.433-.314h1.645c.411,0,.5.119.357.509l-.649,1.721c-.725,1.883-1.45,3.777-2.175,5.66-.022.065-.054.13-.076.195a.527.527,0,0,1-.541.357q-.714-.016-1.429,0a.612.612,0,0,1-.649-.444c-.271-.714-.552-1.439-.822-2.153-.649-1.7-1.309-3.4-1.959-5.108a1.929,1.929,0,0,1-.141-.422c-.033-.216.043-.325.26-.325.617-.011,1.234,0,1.84,0,.26,0,.379.173.444.4.119.411.238.833.368,1.244.444,1.5.877,3.019,1.32,4.523C299.018,160.359,299.029,160.359,299.051,160.359Z" transform="translate(-294.791 -150.3)" fill="#fff"/>
    <path id="Caminho_5" data-name="Caminho 5" d="M343.275,158.471v3.9a.31.31,0,0,1-.335.325c-.584.011-1.158.011-1.742,0a.3.3,0,0,1-.335-.314,1.319,1.319,0,0,1-.011-.206v-7.488c.011-.335.1-.433.433-.433h1.558c.335,0,.433.1.433.433Z" transform="translate(-331.353 -150.36)" fill="#fff"/>
    <path id="Caminho_6" data-name="Caminho 6" d="M341.419,135.389a1.309,1.309,0,0,1,.639.108,1.138,1.138,0,0,1,.736,1.006,1.275,1.275,0,0,1-1.45,1.461,2.009,2.009,0,0,1-.357-.043,1.283,1.283,0,0,1,.206-2.521.8.8,0,0,1,.227-.011Z" transform="translate(-330.699 -135.383)" fill="#fff"/>
    <path id="Caminho_7" data-name="Caminho 7" d="M489.895,178.465Z" transform="translate(-449.664 -169.575)" fill="#fff"/>
    <path id="Caminho_8" data-name="Caminho 8" d="M457.745,156.709v.043a.156.156,0,0,1-.043-.162V156.5a.011.011,0,0,1,.011-.011H457.7v-.108h.022c0-.011-.011-.011-.011-.022a3.762,3.762,0,0,0-.119-.606,3.64,3.64,0,0,0-2.76-2.738,5.316,5.316,0,0,0-2.067-.076,3.552,3.552,0,0,0-3.019,2.381,5.788,5.788,0,0,0,.011,4.09,3.45,3.45,0,0,0,2.543,2.273,5.361,5.361,0,0,0,2.034.108,3.718,3.718,0,0,0,3.366-3.485h-.011v-.152c-.011-.065-.022-.119.043-.162v.022a.084.084,0,0,1,.022-.043v-1.244C457.756,156.72,457.745,156.72,457.745,156.709Zm-2.6,2.056a1.981,1.981,0,0,1-.3.628,1.4,1.4,0,0,1-1.028.584,1.967,1.967,0,0,1-.617-.022,1.391,1.391,0,0,1-1.017-.812,3.09,3.09,0,0,1-.292-1.071,5.92,5.92,0,0,1,.087-1.9,2.427,2.427,0,0,1,.292-.714,1.41,1.41,0,0,1,1.1-.671,1.97,1.97,0,0,1,.617.022,1.394,1.394,0,0,1,.985.768,3.189,3.189,0,0,1,.314,1.223,5.26,5.26,0,0,1,.011.584A3.954,3.954,0,0,1,455.148,158.765Z" transform="translate(-417.503 -149.269)" fill="#fff"/>
    <path id="Caminho_9" data-name="Caminho 9" d="M367.9,135.777h-1.5c-.411,0-.487.076-.487.487v3.506c0,.076.033.151-.022.227-.1-.011-.152-.076-.227-.119a3.6,3.6,0,0,0-3.5-.227,3.405,3.405,0,0,0-1.688,1.926,6.145,6.145,0,0,0-.379,2.5,5.154,5.154,0,0,0,.541,2.3,3.113,3.113,0,0,0,1.872,1.656,3.5,3.5,0,0,0,3.29-.563c.076-.043.119-.119.216-.141a1.546,1.546,0,0,1,.119.379.384.384,0,0,0,.379.292h.26c.39,0,.768.011,1.147,0,.3,0,.39-.1.4-.411V136.188C368.311,135.853,368.225,135.777,367.9,135.777Zm-1.98,7.965v1.969a.284.284,0,0,1-.173.3,2.668,2.668,0,0,1-1.7.325,1.482,1.482,0,0,1-1.158-.8,3,3,0,0,1-.3-1.093,5.591,5.591,0,0,1,.13-2.034,2.5,2.5,0,0,1,.216-.53,1.4,1.4,0,0,1,1.136-.725,3.269,3.269,0,0,1,1.667.292.3.3,0,0,1,.195.314C365.909,142.432,365.92,143.082,365.92,143.742Z" transform="translate(-346.629 -135.696)" fill="#fff"/>
    <path id="Caminho_10" data-name="Caminho 10" d="M412.277,158.537a4.433,4.433,0,0,0,1.818-.465,2.012,2.012,0,0,0,1.093-1.439,2.94,2.94,0,0,0-.011-1.19,2.508,2.508,0,0,0-1.775-1.894,4.791,4.791,0,0,0-1.612-.206,3.769,3.769,0,0,0-3.766,2.781,6.007,6.007,0,0,0,.043,3.625,3.325,3.325,0,0,0,2.478,2.316,5.875,5.875,0,0,0,1.623.162,6.88,6.88,0,0,0,2.327-.444.481.481,0,0,0,.39-.563v-.779c-.011-.314-.141-.422-.454-.346-.238.065-.465.119-.7.173a5.475,5.475,0,0,1-2.218.076,1.7,1.7,0,0,1-1.429-1.3,4.438,4.438,0,0,1-.119-.66.344.344,0,0,1,.152.022A8.539,8.539,0,0,0,412.277,158.537Zm-2.262-1.731a2.686,2.686,0,0,1,.433-1.179,1.625,1.625,0,0,1,1.58-.617c.054,0,.1.022.151.022a.967.967,0,0,1,.8,1.309.953.953,0,0,1-.866.671,2.768,2.768,0,0,1-.671.054,10.522,10.522,0,0,1-1.309-.108C410.036,156.946,409.993,156.9,410.015,156.805Z" transform="translate(-384.469 -149.636)" fill="#fff"/>
  </g>
  <g id="Grupo_8" data-name="Grupo 8" transform="translate(0 0.003)">
    <path id="Caminho_11" data-name="Caminho 11" d="M193.917,223.788c-.591-.032-1.181-.054-1.772-.1a30.994,30.994,0,0,1-4.686-.714,31.734,31.734,0,0,1-14.046-7.315c-.379-.335-.736-.682-1.1-1.028a.8.8,0,0,1-.206-.292.4.4,0,0,1,.076-.433.383.383,0,0,1,.433-.1,2.283,2.283,0,0,1,.281.141,42.1,42.1,0,0,0,12.575,5.194q2.24.519,4.512.812a41.536,41.536,0,0,0,6.558.292,34.829,34.829,0,0,0,3.517-.292,42.539,42.539,0,0,0,8.03-1.829,37.905,37.905,0,0,0,4.025-1.58.9.9,0,0,1,.649-.086.672.672,0,0,1,.487.812.765.765,0,0,1-.054.141,1.186,1.186,0,0,1-.357.411,24.1,24.1,0,0,1-4,2.543,31.714,31.714,0,0,1-8.473,2.868,37.163,37.163,0,0,1-5.119.552h-.01v.043h-1.3v-.043Zm19.915-10.55a9.222,9.222,0,0,1,2.11.249,3.51,3.51,0,0,1,.563.206.729.729,0,0,1,.444.6,4.437,4.437,0,0,1,.033.931,11.936,11.936,0,0,1-1.667,5.227,7.223,7.223,0,0,1-1.255,1.548.893.893,0,0,1-.346.216.253.253,0,0,1-.346-.26,1.184,1.184,0,0,1,.076-.325c.379-1.017.747-2.024,1.039-3.073a10.74,10.74,0,0,0,.368-1.753,3.248,3.248,0,0,0,.011-.649.844.844,0,0,0-.606-.79,4.2,4.2,0,0,0-1.039-.195,17.08,17.08,0,0,0-2.976.13l-1.309.162a.324.324,0,0,1-.346-.13.365.365,0,0,1,.032-.39,1.089,1.089,0,0,1,.325-.3,7.434,7.434,0,0,1,2.651-1.147,12.925,12.925,0,0,1,2.24-.249Z" transform="translate(-151.023 -197.188)" fill="#00a8e1"/>
    <path id="Caminho_12" data-name="Caminho 12" d="M78.3,142.6a4.93,4.93,0,0,0-.422-1.623,3.131,3.131,0,0,0-2.164-1.85,3.824,3.824,0,0,0-3.236.725.87.87,0,0,1-.227.162c-.022-.011-.043-.022-.043-.033-.032-.108-.054-.216-.087-.325a.429.429,0,0,0-.487-.368c-.325,0-.66.011-.985,0A.754.754,0,0,0,70,139.5c0,3.788,0,7.586.011,11.363a.6.6,0,0,0,.606.26c.39-.011.779,0,1.169,0,.682,0,.682,0,.682-.671v-3.084c0-.076-.033-.162.043-.227a3.634,3.634,0,0,0,1.883.747,3.174,3.174,0,0,0,2.543-.79,4,4,0,0,0,1.125-1.807A6.687,6.687,0,0,0,78.3,142.6Zm29.359,1.591a7.207,7.207,0,0,0,2.456.033,3.964,3.964,0,0,0,1.353-.433,2.013,2.013,0,0,0,1-1.212,2.581,2.581,0,0,0-1.623-3.247,4.844,4.844,0,0,0-2.154-.206,3.692,3.692,0,0,0-3.333,2.77,5.973,5.973,0,0,0-.022,3.376,3.384,3.384,0,0,0,2.77,2.6,6.978,6.978,0,0,0,3.755-.325.5.5,0,0,0,.368-.53c-.011-.26,0-.53,0-.8,0-.325-.13-.422-.444-.346s-.617.141-.931.206a5.364,5.364,0,0,1-2.034.022,1.812,1.812,0,0,1-1.461-1.948,2.953,2.953,0,0,1,.3.043Zm-14.89,3.55h-1.45c-.379,0-.476-.108-.476-.476v-7.51a1.066,1.066,0,0,1,.033-.26.315.315,0,0,1,.3-.206H92.53a.391.391,0,0,1,.379.3c.054.152.087.292.141.454.108,0,.173-.076.249-.119a5.622,5.622,0,0,1,1.926-.812,4.1,4.1,0,0,1,1.623,0,2.028,2.028,0,0,1,1.255.844.468.468,0,0,0,.065.076c-.011.011,0,.011.011.032.271-.162.552-.335.844-.487a4.838,4.838,0,0,1,2.456-.541A2.162,2.162,0,0,1,103.7,141.2c.011.119.011.238.011.368v5.606c0,.487-.065.552-.552.552h-1.32a2.1,2.1,0,0,1-.26-.011.3.3,0,0,1-.26-.249,1.981,1.981,0,0,1-.022-.357V142.1a1.824,1.824,0,0,0-.065-.6.809.809,0,0,0-.736-.6,3.82,3.82,0,0,0-1.861.357.178.178,0,0,0-.13.195v5.692a1.532,1.532,0,0,1-.022.314.259.259,0,0,1-.271.26c-.162.011-.325.011-.5.011H96.567c-.4,0-.487-.1-.487-.5v-5.119a2.48,2.48,0,0,0-.054-.563.817.817,0,0,0-.757-.649,3.808,3.808,0,0,0-1.894.368.173.173,0,0,0-.119.206v5.768C93.255,147.652,93.169,147.739,92.769,147.739Zm-10.951-.011H80.41a1.767,1.767,0,0,1-.238-.011.29.29,0,0,1-.26-.271,2.067,2.067,0,0,1-.011-.26v-7.359c0-.5.054-.552.552-.552h1.039a.429.429,0,0,1,.487.368c.076.271.141.541.206.833a.323.323,0,0,0,.184-.13,7.513,7.513,0,0,1,.617-.552,2.879,2.879,0,0,1,1.97-.6c.281.011.379.1.4.368.022.368.011.747.011,1.115a2.028,2.028,0,0,1-.022.444.31.31,0,0,1-.314.292,3.036,3.036,0,0,1-.444-.011,5.184,5.184,0,0,0-2.11.3c-.152.054-.152.162-.152.281v5.194a2.474,2.474,0,0,1-.011.281.261.261,0,0,1-.26.249,1.767,1.767,0,0,1-.238.011Zm6.536-.022h-1.5a.721.721,0,0,1-.152-.011.313.313,0,0,1-.292-.281,2.1,2.1,0,0,1-.011-.26c.011-1.2.011-2.435.011-3.669v-3.842c.011-.26.108-.357.368-.368q.844-.016,1.688,0c.249,0,.325.076.346.325a2.471,2.471,0,0,1,.011.281v7.207c0,.119-.011.238-.022.357a.269.269,0,0,1-.26.249A1.059,1.059,0,0,1,88.353,147.706Zm-12.64-2.868a1.668,1.668,0,0,1-.5.866,1.541,1.541,0,0,1-1,.379,2.97,2.97,0,0,1-1.58-.346.307.307,0,0,1-.184-.3v-1.959c0-.649.011-1.3,0-1.948a.329.329,0,0,1,.217-.336,2.926,2.926,0,0,1,1.861-.281,1.321,1.321,0,0,1,1.028.779,3.025,3.025,0,0,1,.281,1.1,5.41,5.41,0,0,1-.13,2.045Zm31.675-2.3a2.93,2.93,0,0,1,.206-.747,1.613,1.613,0,0,1,1.7-1.017,1.768,1.768,0,0,1,.573.13.826.826,0,0,1,.5.682,1.241,1.241,0,0,1-.033.563.966.966,0,0,1-.822.628,2.184,2.184,0,0,1-.7.054,8.451,8.451,0,0,1-1.277-.1c-.162-.022-.162-.022-.141-.195ZM87.661,135.4a1.354,1.354,0,0,1,.508.076A1.228,1.228,0,0,1,89,136.841a1.208,1.208,0,0,1-1.028,1.1,2.039,2.039,0,0,1-.725,0,1.211,1.211,0,0,1-1.028-1.353,1.26,1.26,0,0,1,1.439-1.19Z" transform="translate(-70 -135.4)" fill="#00a8e1"/>
  </g>
</svg>
