<svg xmlns="http://www.w3.org/2000/svg" xmlns:xlink="http://www.w3.org/1999/xlink" width="73.331" height="39.843" viewBox="0 0 73.331 39.843">
  <defs>
    <linearGradient id="linear-gradient" x1="1.016" y1="1.512" x2="0.021" y2="1.884" gradientUnits="objectBoundingBox">
      <stop offset="0" stop-color="#101c50"/>
      <stop offset="0.236" stop-color="#0d267a"/>
      <stop offset="0.497" stop-color="#085aa4"/>
      <stop offset="0.655" stop-color="#058bbf"/>
      <stop offset="1" stop-color="#b1ffff"/>
    </linearGradient>
  </defs>
  <g id="Grupo_4" data-name="Grupo 4" transform="translate(0 0)">
    <path id="Caminho_2" data-name="Caminho 2" d="M236.555,156.643l.089.012a6.922,6.922,0,0,1,1.806.431,1.865,1.865,0,0,1,.976.919,2.609,2.609,0,0,1-1.255,3.659,4.873,4.873,0,0,1-1.64.445,5.838,5.838,0,0,1-3.1-.554,3.717,3.717,0,0,1-1.571-1.336,1.33,1.33,0,0,1,.062-1.429,2.783,2.783,0,0,1,2.313-.785,9.583,9.583,0,0,1,2.244.41,4.305,4.305,0,0,1,.839.387.279.279,0,0,1,.086.274c-.13.4-1.095.607-1.373.648-.746.114-1.133-.168-1.981-.5a2.913,2.913,0,0,0-.705-.194c-.385-.037-.85.071-.923.491-.036.217.217.419.411.5a3.107,3.107,0,0,0,1.272.272,6.661,6.661,0,0,0,3.89-.962.6.6,0,0,0,.3-.455c0-.394-.686-.634-.686-.634a11.2,11.2,0,0,0-2.768-.509c-.728-.063-1.873-.157-2.148-.2a3.242,3.242,0,0,1-.836-.207,1.042,1.042,0,0,1-.559-.636,1.971,1.971,0,0,1,.311-1.5c.723-1.039,2.415-1.434,3.68-1.59a8.45,8.45,0,0,1,4.405.488c.186.1.28.192.242.391a.964.964,0,0,1-.7.718,7.719,7.719,0,0,1-1.416.178,23.535,23.535,0,0,0-4.582.415.947.947,0,0,0-.356.149c-.216.235.4.3.533.329a.522.522,0,0,0,.088.015l3.051.36m-8.623-6.463s.236-.354.433-.622a11.2,11.2,0,0,1,1.5-1.586c.15-.128.327-.273.327-.273s-.277.029-.433.061a3.308,3.308,0,0,0-1.19.669c-.45.385-.944,1.011-.72,1.567.033.078.083.184.083.184m2.5.669a4.747,4.747,0,0,0,2-.6c.608-.34,1.5-1,1.409-1.782a.656.656,0,0,0-.4-.531.908.908,0,0,0-.758,0,2.276,2.276,0,0,0-.6.254,9.182,9.182,0,0,0-2.221,1.963c-.124.163-.249.345-.347.471-.062.077-.11.148-.1.167a3.142,3.142,0,0,0,1.031.052m-1.808,1.328a3.113,3.113,0,0,0-.231.4.8.8,0,0,1-.175.2.363.363,0,0,1-.52-.015,1.27,1.27,0,0,1-.405-.9,2.713,2.713,0,0,0-.008-.429,2.8,2.8,0,0,0-.364-.618,2.424,2.424,0,0,1-.25-.9,3.01,3.01,0,0,1,.946-2.166,6.257,6.257,0,0,1,2.1-1.44,4.127,4.127,0,0,1,2.7-.249,2.051,2.051,0,0,1,.839.565.612.612,0,0,0,.115.131.85.85,0,0,0,.211.047,2.109,2.109,0,0,1,.8.381,1.542,1.542,0,0,1,.565.906,2.489,2.489,0,0,1-.772,2.09,7.641,7.641,0,0,1-2.773,1.9,4.436,4.436,0,0,1-1.761.312c-.168-.014-.341-.058-.5-.069a2.316,2.316,0,0,1-.421-.108c-.041-.031-.093-.058-.1-.048m.97,1.676a.746.746,0,0,1,.128.037,1.12,1.12,0,0,1,.631.884,26.708,26.708,0,0,1,.346,3.665c.027.584.041,1.159.066,1.736a6.908,6.908,0,0,1-.042,1.6.753.753,0,0,1-.305.454,1.386,1.386,0,0,1-.818.078c-.557-.115-.739-.474-.818-1.025a27.546,27.546,0,0,1,.013-4.987,10.832,10.832,0,0,1,.361-2c.064-.163.2-.491.439-.445m-16.959,2.189s-.83.059-1.4.122a15.467,15.467,0,0,0-2.879.6c-.237.085-.717.286-.758.529a.814.814,0,0,0,.286.653c.1.118.669.666.829.8a14.348,14.348,0,0,0,3.024,1.838c.343.142.911.345.911.345s-.042-1.617-.035-3.209c0-.84.022-1.672.022-1.672m15.213.643a6.962,6.962,0,0,1-.083,1.364,6.3,6.3,0,0,1-.255.9,10.282,10.282,0,0,1-.461.923,7.63,7.63,0,0,1-1.3,1.6,10.872,10.872,0,0,1-5.536,2.169,14.11,14.11,0,0,1-4.129-.12c-.469-.085-1.168-.246-1.168-.246s0,.279-.02.476a1.972,1.972,0,0,1-.116.4.636.636,0,0,1-.5.356,1.491,1.491,0,0,1-.853-.042,1.225,1.225,0,0,1-.665-1.056c-.061-.374-.125-1.024-.125-1.024s-.324-.154-.595-.288a15.388,15.388,0,0,1-2.309-1.415c-.191-.143-1.012-.83-1.194-1a6.777,6.777,0,0,1-1.313-1.579,1.511,1.511,0,0,1-.143-1.418,3.826,3.826,0,0,1,2-1.551,16.654,16.654,0,0,1,2.765-.842c.312-.045.8-.131.826-.151a.19.19,0,0,0,.029-.027c.015-.021.041-.725.036-.982s.187-1.915.249-2.267a4.119,4.119,0,0,1,.324-1.114.293.293,0,0,1,.4-.034c.758.472.989,2.107,1.045,2.939.034.507.051,1.27.051,1.27s.87-.026,1.4-.011a12.659,12.659,0,0,1,1.633.18,11.507,11.507,0,0,1,2.81.8,2.864,2.864,0,0,1,1.425,1.441,1.466,1.466,0,0,1-.121,1.368,1.913,1.913,0,0,1-1.476.97,2.424,2.424,0,0,1-1.038-.235.181.181,0,0,1-.018-.252c.022-.027.33-.191.512-.286a1.175,1.175,0,0,0,.238-.168c.151-.133.287-.28.272-.451-.021-.223-.257-.36-.482-.449a17.6,17.6,0,0,0-4.179-.827c-.4-.023-.965-.043-.965-.043l.12,5.62s.469.089.838.149c.212.032,1.11.113,1.348.119a12.417,12.417,0,0,0,5.51-.9,5.742,5.742,0,0,0,1.911-1.353,3.932,3.932,0,0,0,.928-2.917,7.608,7.608,0,0,0-1.62-3.489,19.15,19.15,0,0,0-7.517-5.277,23.953,23.953,0,0,0-8.359-1.883,13.869,13.869,0,0,0-3.212.239c-.118.033-.237.073-.347.1a.965.965,0,0,0-.261.109.421.421,0,0,0-.041.04s.051.028.1.049c.087.038.456.061.647.1a.625.625,0,0,1,.419.247.247.247,0,0,1,0,.312c-.187.228-.892.189-1.2.14s-.724-.15-.8-.431a1.314,1.314,0,0,1,.241-.955,2.3,2.3,0,0,1,1.545-1.107,15.734,15.734,0,0,1,3.259-.512,19.024,19.024,0,0,1,6.331.936,30.251,30.251,0,0,1,3.935,1.531,30.814,30.814,0,0,1,2.866,1.614c.231.152,1.584,1.147,1.795,1.321.438.359,1.012.874,1.427,1.286a13.266,13.266,0,0,1,2.288,2.985c.117.232.207.46.358.729a6.451,6.451,0,0,1,.31.8c.037.157.09.389.1.4a5.692,5.692,0,0,1,.105.74m27.3-1.243a32.919,32.919,0,0,1-3.691.365l-.337,1.056a14.98,14.98,0,0,1,2.309-.013s.315-.037.352.358a6.167,6.167,0,0,1-.031.762s-.02.239-.359.3c-.367.061-2.881.158-2.881.158l-.407,1.377s-.151.318.188.227a23.437,23.437,0,0,1,3.292-.507.939.939,0,0,1,.657,1.028c-.14.554-2.77,2.231-4.371,2.113,0,0-.841.054-1.553-1.081-.662-1.082.251-3.131.251-3.131s-.419-.957-.115-1.281a1.237,1.237,0,0,1,.707-.2l.644-1.333a1.5,1.5,0,0,1-1.171-.489c-.407-.512-.441-.748-.129-.889A21.887,21.887,0,0,1,254,153.61s.731-.072,1.365,1.2c0,0,.307.513-.215.636m-7.912,5.126a1.4,1.4,0,0,1-1.866.89c-.873-.422-2.264-3.269-2.264-3.269s-.528-1.062-.63-1.034c0,0-.114-.207-.184.953s.014,3.408-.447,3.762a.815.815,0,0,1-1.239-.2,6.2,6.2,0,0,1-.217-3.089c.16-1.711.557-3.531,1.065-4.1a.655.655,0,0,1,1.073-.006,12.351,12.351,0,0,1,1.8,2.42l.2.334a15.259,15.259,0,0,0,1.123,1.7s.083.078.157.022c.107-.03.064-.577.064-.577a32.872,32.872,0,0,0-1.138-5,1.474,1.474,0,0,1-.045-.76c.094-.372.466-.2.466-.2a4.971,4.971,0,0,1,2.135,3.063,8.458,8.458,0,0,1-.046,5.091m15.469-1.4c-.654,1.142-2.5,3.532-4.956,2.968a25.525,25.525,0,0,0-1.881,6.929s-.086.578-.566.377a2.708,2.708,0,0,1-1.419-2.054c-.171-1.439.47-3.871,1.779-6.66a3.827,3.827,0,0,1-.419-2.77,8.134,8.134,0,0,1,2.684-4.459s.283-.244.446-.169c.18.076.1.839-.046,1.21s-1.2,2.184-1.2,2.184a4.066,4.066,0,0,0-.47,2.193c1.235-1.9,4.043-5.729,5.783-4.521a2.833,2.833,0,0,1,.854,2.309,5.229,5.229,0,0,1-.592,2.462m-.508-3.008s-.1-.755-.835.077a17.967,17.967,0,0,0-2.7,3.8,4.484,4.484,0,0,0,2.182-.9,3.63,3.63,0,0,0,1.355-2.979m14.03-.172h-4.5a35.4,35.4,0,0,0-.564-4.552.335.335,0,0,0-.329-.274H269.8a.306.306,0,0,0-.3.364,32.949,32.949,0,0,1,.574,4.463h-4.328a.365.365,0,0,0-.365.364v.935a.366.366,0,0,0,.365.366h4.39c0,.231.005.438.005.632a32.8,32.8,0,0,1-.194,3.712.342.342,0,0,0,.337.377h.962a.363.363,0,0,0,.362-.328,34.556,34.556,0,0,0,.188-3.761c0-.193,0-.4,0-.632h4.437a.366.366,0,0,0,.365-.366v-.935a.366.366,0,0,0-.365-.366" transform="translate(-203.264 -129.641)" fill="#fff"/>
    <path id="Caminho_3" data-name="Caminho 3" d="M252.747,101.2a.362.362,0,0,0-.043.32.371.371,0,0,0,.229.229l.806.271a.486.486,0,0,0,.145.023.449.449,0,0,0,.373-.2,29.343,29.343,0,0,1,24.286-12.868,29.378,29.378,0,0,1,27.045,17.929.423.423,0,0,0,.39.259h.963a.337.337,0,0,0,.311-.463,30.994,30.994,0,0,0-54.505-5.5" transform="translate(-239.935 -87.388)" fill="url(#linear-gradient)"/>
  </g>
</svg>
