<svg id="globoplay-seeklogo.com" xmlns="http://www.w3.org/2000/svg" xmlns:xlink="http://www.w3.org/1999/xlink" width="99.267" height="21.641" viewBox="0 0 99.267 21.641">
  <defs>
    <linearGradient id="linear-gradient" x1="0.122" y1="0.5" x2="8.152" y2="0.5" gradientUnits="objectBoundingBox">
      <stop offset="0.123" stop-color="#fe012f"/>
      <stop offset="0.955" stop-color="#fe8e04"/>
    </linearGradient>
    <linearGradient id="linear-gradient-2" x1="-7.289" y1="0.5" x2="0.769" y2="0.5" xlink:href="#linear-gradient"/>
    <linearGradient id="linear-gradient-3" x1="-2.472" y1="0.5" x2="5.535" y2="0.5" xlink:href="#linear-gradient"/>
    <linearGradient id="linear-gradient-4" x1="-4.751" y1="0.5" x2="3.359" y2="0.5" xlink:href="#linear-gradient"/>
    <linearGradient id="linear-gradient-5" x1="-6.207" y1="0.5" x2="1.842" y2="0.5" xlink:href="#linear-gradient"/>
    <linearGradient id="linear-gradient-6" x1="-1.378" y1="0.5" x2="6.659" y2="0.5" xlink:href="#linear-gradient"/>
    <linearGradient id="linear-gradient-7" x1="-3.602" y1="0.5" x2="4.46" y2="0.5" xlink:href="#linear-gradient"/>
    <linearGradient id="linear-gradient-8" x1="-21.168" y1="0.5" x2="8.11" y2="0.5" xlink:href="#linear-gradient"/>
    <linearGradient id="linear-gradient-9" x1="-3.687" y1="0.5" x2="26.149" y2="0.5" xlink:href="#linear-gradient"/>
  </defs>
  <path id="Caminho_13" data-name="Caminho 13" d="M5.485,53.4A7.931,7.931,0,0,1,.653,51.916c-.487-.4-.579-.7-.316-1.185.184-.342.356-.7.527-1.04.3-.606.593-.711,1.2-.356a6.672,6.672,0,0,0,3.713,1.027c2.12-.04,2.923-1.369,2.87-3.2a3.787,3.787,0,0,1-2.989,1.159,5.792,5.792,0,0,1-3.331-1.093A5.49,5.49,0,0,1,.14,41.7a5.686,5.686,0,0,1,4.213-4.9,4.413,4.413,0,0,1,4.556,1.172c-.013-.527.04-.856.263-1.027a2.1,2.1,0,0,1,1.053-.158c1.7.013,1.659-.066,1.646,1.106-.013,2.436.026,5.925-.026,8.361C11.871,49.414,10.87,53.4,5.485,53.4ZM8.777,42.567a2.8,2.8,0,0,0-2.791-3.015,2.775,2.775,0,0,0-2.9,2.989,2.8,2.8,0,0,0,2.884,3.042A2.777,2.777,0,0,0,8.777,42.567Z" transform="translate(-0.055 -31.763)" fill="url(#linear-gradient)"/>
  <path id="Caminho_14" data-name="Caminho 14" d="M664.687,54.479c-.408-.211-.29-.632-.092-1,.066-.132.145-.263.224-.4.54-1.053.54-1.067,1.659-.8a1.373,1.373,0,0,0,1.659-.632,11.983,11.983,0,0,0,.922-1.778s-3.028-6.965-4.411-10.112c-.395-.9-.355-.948.606-.948.619,0,1.224.026,1.843-.013a.739.739,0,0,1,.816.566c.816,2.08,2.581,6.649,2.581,6.649.342-.988.724-2,1.04-2.884.435-1.238.9-2.462,1.29-3.713a.787.787,0,0,1,.909-.632c.566.039,1.132.013,1.712.013.777,0,.909.211.619.935-.7,1.751-1.4,3.516-2.107,5.267-.869,2.173-1.949,4.819-2.844,6.978-.54,1.3-1.843,3.252-3.976,3.252A3.831,3.831,0,0,1,664.687,54.479Z" transform="translate(-576.938 -33.667)" fill="url(#linear-gradient-2)"/>
  <path id="Caminho_15" data-name="Caminho 15" d="M237.86,7.343a4.5,4.5,0,0,1,3.028-1.211A5.462,5.462,0,0,1,245.247,8.3a6.621,6.621,0,0,1-.158,7.847,5.133,5.133,0,0,1-7.452.593c-.079-.066-.026.645-.158.869-.2.369-2.423.342-2.647-.026a1.132,1.132,0,0,1-.118-.553c0-4.859,0-9.862-.013-14.721,0-.593.263-.83.83-.816.487.013.961.04,1.448.013.632-.026.843.277.843.869C237.821,3.814,237.847,7.29,237.86,7.343Zm2.712,1.751a2.822,2.822,0,0,0-2.831,3,2.839,2.839,0,1,0,5.662.04A2.819,2.819,0,0,0,240.572,9.094Z" transform="translate(-203.805 -1.291)" fill="url(#linear-gradient-3)"/>
  <path id="Caminho_16" data-name="Caminho 16" d="M437.315,47.519c0,1.633.013,3.134,0,4.635-.013,1.106-.026,1.106-1.146,1.106-.395,0-.79-.026-1.185,0-.513.026-.685-.237-.685-.711V37.776c0-.487.184-.737.7-.7.329.026.922.013,1.251,0,.909-.013.856.263.856,1.132,3.173-3.015,7.847-.751,8.69,3.107a6.032,6.032,0,0,1-3.055,6.873,4.547,4.547,0,0,1-4.753-.224C437.8,47.835,437.631,47.717,437.315,47.519Zm-.053-4.766a2.889,2.889,0,0,0,2.844,3.068,2.823,2.823,0,0,0,2.857-3.042,2.735,2.735,0,0,0-2.726-3.015A2.823,2.823,0,0,0,437.263,42.753Z" transform="translate(-377.124 -31.962)" fill="url(#linear-gradient-4)"/>
  <path id="Caminho_17" data-name="Caminho 17" d="M576.406,38.27c.145-1.067-.013-1.08,1.172-1.067.356,0,.7.026,1.053,0,.592-.066.777.263.777.777v9.875c0,.553-.237.856-.843.8-.3-.026-.619,0-.922,0-1.053,0-1.264.013-1.264-1.159a4.177,4.177,0,0,1-3.042,1.383,4.751,4.751,0,0,1-3.476-1.225,6.169,6.169,0,0,1,.527-9.849,4.644,4.644,0,0,1,5.53.132C576.05,38.033,576.2,38.125,576.406,38.27Zm-5.662,4.608a2.834,2.834,0,1,0,5.649.013,2.907,2.907,0,0,0-2.87-3.042A2.859,2.859,0,0,0,570.744,42.878Z" transform="translate(-492.922 -32.087)" fill="url(#linear-gradient-5)"/>
  <path id="Caminho_18" data-name="Caminho 18" d="M146.619,42.736a5.914,5.914,0,1,1-11.824-.105,5.909,5.909,0,0,1,5.938-5.833A5.835,5.835,0,0,1,146.619,42.736Zm-3.068.132a2.876,2.876,0,1,0-5.741-.237,3,3,0,0,0,2.831,3.186A2.911,2.911,0,0,0,143.551,42.867Z" transform="translate(-117.053 -31.944)" fill="url(#linear-gradient-6)"/>
  <path id="Caminho_19" data-name="Caminho 19" d="M333.492,42.809a5.893,5.893,0,1,1,5.82,5.978A5.756,5.756,0,0,1,333.492,42.809Zm8.743.013a2.844,2.844,0,0,0-2.963-3,2.925,2.925,0,0,0-2.791,3.252,2.963,2.963,0,0,0,2.976,2.831A2.9,2.9,0,0,0,342.235,42.822Z" transform="translate(-289.588 -32.031)" fill="url(#linear-gradient-7)"/>
  <path id="Caminho_20" data-name="Caminho 20" d="M536.768,10.8c0,2.436-.013,4.885.013,7.321,0,.566-.211.79-.764.764a13.286,13.286,0,0,0-1.448,0c-.632.04-.869-.263-.869-.856V3.649c0-.83.119-.948.935-.961.461,0,.922.013,1.383,0,.566-.026.764.224.764.777C536.755,5.913,536.768,8.363,536.768,10.8Z" transform="translate(-463.436 -2.324)" fill="url(#linear-gradient-8)"/>
  <path id="Caminho_21" data-name="Caminho 21" d="M101.013,8.4V.884c0-.9.355-1.2,1.462-.711,1.277.553,1.606.685,1.606,1.725,0,4.069,0,8.585-.04,12.785-.013.816.04,1.172-.961,1.62-.211.092-.619.3-.922.421-.606.25-1.159,0-1.146-.882.013-1.764,0-3.529-.013-5.293C101,9.838,101,9.127,101.013,8.4Z" transform="translate(-87.709 0.058)" fill="url(#linear-gradient-9)"/>
</svg>
