<svg xmlns="http://www.w3.org/2000/svg" xmlns:xlink="http://www.w3.org/1999/xlink" width="93.296" height="16.165" viewBox="0 0 93.296 16.165">
  <defs>
    <linearGradient id="linear-gradient" y1="0.891" x2="1" y2="0.891" gradientUnits="objectBoundingBox">
      <stop offset="0" stop-color="#991eeb"/>
      <stop offset="0.399" stop-color="#5822b4"/>
      <stop offset="0.727" stop-color="#5822b4"/>
      <stop offset="1" stop-color="#991eeb"/>
    </linearGradient>
    <clipPath id="clip-path">
      <path id="Caminho_23" data-name="Caminho 23" d="M370.7,141.577c-.085-3.833-2.8-5.861-6.123-5.861a6.191,6.191,0,0,0-4.588,1.8,6.191,6.191,0,0,0-4.588-1.8c-3.325,0-6.039,2.035-6.124,5.869v8.77a1.45,1.45,0,0,0,1.451,1.45H352.1a.246.246,0,0,0,.246-.246V141.6h0a3.058,3.058,0,0,1,6.106,0h0v8.744a1.45,1.45,0,0,0,1.45,1.451h1.374a.246.246,0,0,0,.246-.246v-9.957h0a3.058,3.058,0,0,1,6.106,0h0v8.744a1.449,1.449,0,0,0,1.45,1.45h1.374a.246.246,0,0,0,.246-.246v-9.957c.009.009,0,0,0-.008Zm30.931-5.615H399.3a1.954,1.954,0,0,0-1.612.857l-2.578,3.817a.848.848,0,0,1-1.408,0l-2.578-3.817a1.942,1.942,0,0,0-1.612-.857h-2.332a.182.182,0,0,0-.153.28l4.6,6.819a1.459,1.459,0,0,1,0,1.628l-4.6,6.818a.18.18,0,0,0,.153.28h2.332a1.954,1.954,0,0,0,1.612-.857l2.578-3.816a.848.848,0,0,1,1.408,0l2.578,3.816a1.943,1.943,0,0,0,1.612.857h2.332a.182.182,0,0,0,.153-.28l-4.606-6.81a1.461,1.461,0,0,1,0-1.628l4.6-6.819A.183.183,0,0,0,401.63,135.963Zm-15.656,0H384.6a1.464,1.464,0,0,0-1.425,1.145,7.189,7.189,0,0,0-4.41-1.408c-4.02,0-7.285,2.8-7.285,8.083s3.257,8.083,7.285,8.083a7.223,7.223,0,0,0,4.385-1.382,1.457,1.457,0,0,0,1.451,1.323h1.374a.246.246,0,0,0,.246-.246V136.209A.252.252,0,0,0,385.974,135.963Zm-7.209,12.9c-2.4,0-4.351-1.756-4.351-5.072s1.951-5.072,4.351-5.072,4.351,1.755,4.351,5.072S381.165,148.863,378.765,148.863Z" transform="translate(-349.276 -135.7)" fill="none"/>
    </clipPath>
    <radialGradient id="radial-gradient" cx="0.5" cy="0.5" r="0.384" gradientUnits="objectBoundingBox">
      <stop offset="0" stop-color="#7ba7f2" stop-opacity="0.502"/>
      <stop offset="1" stop-color="#7ba7f2" stop-opacity="0"/>
    </radialGradient>
    <radialGradient id="radial-gradient-2" cx="0.5" cy="0.5" r="0.706" gradientUnits="objectBoundingBox">
      <stop offset="0.2" stop-color="#7ba7f2"/>
      <stop offset="1" stop-color="#7ba7f2" stop-opacity="0"/>
    </radialGradient>
    <radialGradient id="radial-gradient-3" cx="0.5" cy="0.5" r="0.5" gradientUnits="objectBoundingBox">
      <stop offset="0" stop-color="#7ba7f2"/>
      <stop offset="1" stop-color="#7ba7f2" stop-opacity="0"/>
    </radialGradient>
  </defs>
  <g id="Grupo_22" data-name="Grupo 22" transform="translate(-226 -135.7)">
    <path id="path3441" d="M237.492,151.815h-4.3v-6.132H230.41v6.132H226V136h4.4v5.9h2.782V136h4.3v15.818Zm19.71.068a8.089,8.089,0,0,0,8-8.125,8.021,8.021,0,0,0-15.258-3.469,4.612,4.612,0,0,0-4.232-4.3h-7.345v15.826H245.2a4.751,4.751,0,0,0,4.741-4.461,8.063,8.063,0,0,0,7.26,4.529Zm-12.544-6.429a1.356,1.356,0,0,1,0,2.68H242.47v-2.68Zm0-5.937a1.337,1.337,0,0,1,0,2.646H242.47v-2.646Zm2.892,4.241a3.384,3.384,0,0,0,1.654-.967,6.767,6.767,0,0,0,0,2.188,3.3,3.3,0,0,0-1.654-1.221Zm5.64,0a4.02,4.02,0,1,1,4.02,4.037,4.023,4.023,0,0,1-4.02-4.037Zm4.011,3.172a3.163,3.163,0,0,0,0-6.327,3.163,3.163,0,1,0,0,6.327Z" transform="translate(0 -0.017)" fill="#fff"/>
    <path id="Caminho_22" data-name="Caminho 22" d="M370.7,141.577c-.085-3.833-2.8-5.861-6.123-5.861a6.191,6.191,0,0,0-4.588,1.8,6.191,6.191,0,0,0-4.588-1.8c-3.325,0-6.039,2.035-6.124,5.869v8.77a1.45,1.45,0,0,0,1.451,1.45H352.1a.246.246,0,0,0,.246-.246V141.6h0a3.058,3.058,0,0,1,6.106,0h0v8.744a1.45,1.45,0,0,0,1.45,1.451h1.374a.246.246,0,0,0,.246-.246v-9.957h0a3.058,3.058,0,0,1,6.106,0h0v8.744a1.449,1.449,0,0,0,1.45,1.45h1.374a.246.246,0,0,0,.246-.246v-9.957c.009.009,0,0,0-.008Zm30.931-5.615H399.3a1.954,1.954,0,0,0-1.612.857l-2.578,3.817a.848.848,0,0,1-1.408,0l-2.578-3.817a1.942,1.942,0,0,0-1.612-.857h-2.332a.182.182,0,0,0-.153.28l4.6,6.819a1.459,1.459,0,0,1,0,1.628l-4.6,6.818a.18.18,0,0,0,.153.28h2.332a1.954,1.954,0,0,0,1.612-.857l2.578-3.816a.848.848,0,0,1,1.408,0l2.578,3.816a1.943,1.943,0,0,0,1.612.857h2.332a.182.182,0,0,0,.153-.28l-4.606-6.81a1.461,1.461,0,0,1,0-1.628l4.6-6.819a.183.183,0,0,0-.144-.288Zm-15.656,0H384.6a1.464,1.464,0,0,0-1.425,1.145,7.189,7.189,0,0,0-4.41-1.408c-4.02,0-7.285,2.8-7.285,8.083s3.257,8.083,7.285,8.083a7.223,7.223,0,0,0,4.385-1.382,1.457,1.457,0,0,0,1.451,1.323h1.374a.246.246,0,0,0,.246-.246V136.209A.252.252,0,0,0,385.974,135.963Zm-7.209,12.9c-2.4,0-4.351-1.756-4.351-5.072s1.951-5.072,4.351-5.072,4.351,1.755,4.351,5.072S381.165,148.863,378.765,148.863Z" transform="translate(-82.516)" fill="url(#linear-gradient)"/>
    <g id="g3453" transform="translate(266.76 135.7)">
      <g id="Grupo_17" data-name="Grupo 17" transform="translate(0 0)">
        <g id="Grupo_16" data-name="Grupo 16" clip-path="url(#clip-path)">
          <ellipse id="ellipse3466" cx="9.38" cy="12.213" rx="9.38" ry="12.213" transform="translate(3.265 -7.099)" fill="url(#radial-gradient)"/>
        </g>
      </g>
      <g id="Grupo_19" data-name="Grupo 19" transform="translate(0 0)">
        <g id="Grupo_18" data-name="Grupo 18" clip-path="url(#clip-path)">
          <ellipse id="ellipse3473" cx="19.303" cy="13.663" rx="19.303" ry="13.663" transform="translate(2.689 1.628)" fill="url(#radial-gradient-2)"/>
        </g>
      </g>
      <g id="Grupo_21" data-name="Grupo 21" transform="translate(0 0)">
        <g id="Grupo_20" data-name="Grupo 20" clip-path="url(#clip-path)">
          <circle id="circle3480" cx="10.5" cy="10.5" r="10.5" transform="translate(22.049 -8.101) rotate(-7.565)" fill="url(#radial-gradient-3)"/>
        </g>
      </g>
    </g>
  </g>
</svg>
