<svg xmlns="http://www.w3.org/2000/svg" xmlns:xlink="http://www.w3.org/1999/xlink" width="34.959" height="63.216" viewBox="0 0 34.959 63.216">
  <defs>
    <radialGradient id="radial-gradient" cx="0.483" cy="0.494" r="0.036" gradientUnits="objectBoundingBox">
      <stop offset="0"/>
      <stop offset="1" stop-opacity="0"/>
    </radialGradient>
  </defs>
  <g id="layer1" transform="translate(0.145 0.145)">
    <g id="g4182" transform="translate(0 0)">
      <g id="g5747" transform="translate(0 0)">
        <path id="path4155" d="M-21.981-119.872l-.025,13.907-.025,13.907-1.142-3.228v-.008l-1.482,30.96c1.457,4.106,2.235,6.3,2.243,6.308s.836.058,1.838.108c3.03.149,6.788.472,9.644.828A6.54,6.54,0,0,0-9.663-57c.041-.033.05-14.188.041-31.464l-.025-31.407Z" transform="translate(44.29 119.922)" fill="#b1060f" stroke="#000" stroke-width="0.291"/>
        <path id="path4157" d="M-93.618-120.038V-88.6c0,17.293.017,31.456.041,31.481s1.093-.083,2.384-.224,3.071-.323,3.957-.4c1.358-.116,5.43-.373,5.894-.381.141,0,.149-.7.166-13.319l.025-13.319.985,2.781c.149.43.2.563.348.985l1.482-30.951c-.315-.886-.149-.422-.5-1.432-1.209-3.419-2.235-6.308-2.276-6.44l-.083-.232H-93.618Z" transform="translate(93.618 120.047)" fill="#b1060f" stroke="#000" stroke-width="0.291"/>
        <path id="path5715" d="M-21.981-119.872l-.025,13.907-.025,13.907-1.142-3.228v-.008l-1.482,30.96c1.457,4.106,2.235,6.3,2.243,6.308s.836.058,1.838.108c3.03.149,6.788.472,9.644.828A6.54,6.54,0,0,0-9.663-57c.041-.033.05-14.188.041-31.464l-.025-31.407Z" transform="translate(44.29 119.922)" fill="#b1060f" stroke="#000" stroke-width="0.291"/>
        <path id="path5717" d="M-93.618-120.038V-88.6c0,17.293.017,31.456.041,31.481s1.093-.083,2.384-.224,3.071-.323,3.957-.4c1.358-.116,5.43-.373,5.894-.381.141,0,.149-.7.166-13.319l.025-13.319.985,2.781c.149.43.2.563.348.985l1.482-30.951c-.315-.886-.149-.422-.5-1.432-1.209-3.419-2.235-6.308-2.276-6.44l-.083-.232H-93.618Z" transform="translate(93.618 120.047)" fill="#b1060f" stroke="#000" stroke-width="0.291"/>
        <path id="path5719" d="M-93.618-120.038v17.649L-81.185-69.41c0-.753,0-1.167.008-2.028l.025-13.319.985,2.781c5.463,15.5,8.4,23.807,8.419,23.824s.836.058,1.838.108c3.03.149,6.788.472,9.644.828A6.54,6.54,0,0,0-59-57.126c.025-.025.041-6.962.041-16.755l-12.367-35.579-.008,3.369-.025,13.907L-72.5-95.411c-1.118-3.154-1.863-5.265-6.357-17.963-1.209-3.419-2.235-6.308-2.276-6.44l-.083-.232h-12.4Z" transform="translate(93.618 120.047)" fill="url(#radial-gradient)"/>
        <path id="path5721" d="M-93.618-120.038-81.16-84.733v-.017l.985,2.781c5.472,15.488,8.41,23.8,8.427,23.816s.836.058,1.838.108c3.03.149,6.788.472,9.644.828a6.469,6.469,0,0,0,1.258.091L-71.359-92.191v.008L-72.5-95.411c-1.118-3.154-1.863-5.265-6.357-17.963-1.209-3.419-2.235-6.308-2.276-6.44l-.083-.232h-6.2Z" transform="translate(93.618 120.047)" fill="#e50914"/>
      </g>
    </g>
  </g>
</svg>
